name Walk6.mot
datacolumns 19
datarows 25
range 2.10500000 2.12900000
endheader

                time	   L_ground_force_vx	   L_ground_force_vy	   L_ground_force_vz	   L_ground_force_px	   L_ground_force_py	   L_ground_force_pz	   R_ground_force_vx	   R_ground_force_vy	   R_ground_force_vz	   R_ground_force_px	   R_ground_force_py	   R_ground_force_pz	   L_ground_torque_x	   L_ground_torque_y	   L_ground_torque_z	   R_ground_torque_x	   R_ground_torque_y	   R_ground_torque_z	
          2.10500000	          0.00000000	          0.00000000	          0.00000000	          0.00000000	          0.00000000	          0.00000000	          0.00000000	          0.00000000	          0.00000000	          0.00000000	          0.00000000	          0.00000000	          0.00000000	          0.00000000	          0.00000000	          0.00000000	          0.00000000	          0.00000000	
          2.10600000	          0.00000000	          0.00000000	          0.00000000	          0.00000000	          0.00000000	          0.00000000	          0.00000000	          0.00000000	          0.00000000	          0.00000000	          0.00000000	          0.00000000	          0.00000000	          0.00000000	          0.00000000	          0.00000000	          0.00000000	          0.00000000	
          2.10700000	          0.00000000	          0.00000000	          0.00000000	          0.00000000	          0.00000000	          0.00000000	          0.00000000	          0.00000000	          0.00000000	          0.00000000	          0.00000000	          0.00000000	          0.00000000	          0.00000000	          0.00000000	          0.00000000	          0.00000000	          0.00000000	
          2.10800000	          0.00000000	          0.00000000	          0.00000000	          0.00000000	          0.00000000	          0.00000000	         -1.81938386	         10.45494329	         -2.38492448	         -0.50300810	          0.00000000	         -0.08206536	          0.00000000	          0.00000000	          0.00000000	          0.00000000	         -0.02571657	          0.00000000	
          2.10900000	          0.00000000	          0.00000000	          0.00000000	          0.00000000	          0.00000000	          0.00000000	         -2.68642284	         19.42867079	         -3.88730420	         -0.50027303	          0.00000000	         -0.07820232	          0.00000000	          0.00000000	          0.00000000	          0.00000000	         -0.04715005	          0.00000000	
          2.11000000	          0.00000000	          0.00000000	          0.00000000	          0.00000000	          0.00000000	          0.00000000	         -3.43045632	         31.24590439	         -5.55771361	         -0.49792733	          0.00000000	         -0.07555023	          0.00000000	          0.00000000	          0.00000000	          0.00000000	         -0.07564492	          0.00000000	
          2.11100000	          0.00000000	          0.00000000	          0.00000000	          0.00000000	          0.00000000	          0.00000000	         -3.88265093	         45.59168002	         -7.23928796	         -0.49571578	          0.00000000	         -0.07401013	          0.00000000	          0.00000000	          0.00000000	          0.00000000	         -0.10622946	          0.00000000	
          2.11200000	          0.00000000	          0.00000000	          0.00000000	          0.00000000	          0.00000000	          0.00000000	         -3.95501181	         62.30750612	         -8.86637936	         -0.49386535	          0.00000000	         -0.07343140	          0.00000000	          0.00000000	          0.00000000	          0.00000000	         -0.13158198	          0.00000000	
          2.11300000	          0.00000000	          0.00000000	          0.00000000	          0.00000000	          0.00000000	          0.00000000	         -3.58815945	         81.15461010	        -10.40930615	         -0.49253827	          0.00000000	         -0.07337990	          0.00000000	          0.00000000	          0.00000000	          0.00000000	         -0.14778238	          0.00000000	
          2.11400000	          0.00000000	          0.00000000	          0.00000000	          0.00000000	          0.00000000	          0.00000000	         -2.71796297	        101.53532301	        -11.81157720	         -0.49164405	          0.00000000	         -0.07337506	          0.00000000	          0.00000000	          0.00000000	          0.00000000	         -0.15791064	          0.00000000	
          2.11500000	          0.00000000	          0.00000000	          0.00000000	          0.00000000	          0.00000000	          0.00000000	         -1.29557272	        122.46544629	        -12.98603604	         -0.49101781	          0.00000000	         -0.07317056	          0.00000000	          0.00000000	          0.00000000	          0.00000000	         -0.16867515	          0.00000000	
          2.11600000	          0.00000000	          0.00000000	          0.00000000	          0.00000000	          0.00000000	          0.00000000	          0.67493916	        142.78256708	        -13.86094162	         -0.49055580	          0.00000000	         -0.07279692	          0.00000000	          0.00000000	          0.00000000	          0.00000000	         -0.18460143	          0.00000000	
          2.11700000	          0.00000000	          0.00000000	          0.00000000	          0.00000000	          0.00000000	          0.00000000	          3.11502236	        161.43790062	        -14.42674370	         -0.49020072	          0.00000000	         -0.07241300	          0.00000000	          0.00000000	          0.00000000	          0.00000000	         -0.20569282	          0.00000000	
          2.11800000	          0.00000000	          0.00000000	          0.00000000	          0.00000000	          0.00000000	          0.00000000	          5.87468907	        177.72325876	        -14.74812583	         -0.48990286	          0.00000000	         -0.07214312	          0.00000000	          0.00000000	          0.00000000	          0.00000000	         -0.22766053	          0.00000000	
          2.11900000	          0.00000000	          0.00000000	          0.00000000	          0.00000000	          0.00000000	          0.00000000	          8.75378943	        191.35408600	        -14.94283550	         -0.48961018	          0.00000000	         -0.07202924	          0.00000000	          0.00000000	          0.00000000	          0.00000000	         -0.24384081	          0.00000000	
          2.12000000	          0.00000000	          0.00000000	          0.00000000	          0.00000000	          0.00000000	          0.00000000	         11.53844351	        202.37711943	        -15.13614948	         -0.48928196	          0.00000000	         -0.07205366	          0.00000000	          0.00000000	          0.00000000	          0.00000000	         -0.24934439	          0.00000000	
          2.12100000	          0.00000000	          0.00000000	          0.00000000	          0.00000000	          0.00000000	          0.00000000	         14.04119463	        210.99324578	        -15.41145016	         -0.48888846	          0.00000000	         -0.07213660	          0.00000000	          0.00000000	          0.00000000	          0.00000000	         -0.24549132	          0.00000000	
          2.12200000	          0.00000000	          0.00000000	          0.00000000	          0.00000000	          0.00000000	          0.00000000	         16.12692823	        217.44759706	        -15.79030789	         -0.48840382	          0.00000000	         -0.07215541	          0.00000000	          0.00000000	          0.00000000	          0.00000000	         -0.24156671	          0.00000000	
          2.12300000	          0.00000000	          0.00000000	          0.00000000	          0.00000000	          0.00000000	          0.00000000	         17.72132996	        221.99687569	        -16.25378853	         -0.48785595	          0.00000000	         -0.07202405	          0.00000000	          0.00000000	          0.00000000	          0.00000000	         -0.24882963	          0.00000000	
          2.12400000	          0.00000000	          0.00000000	          0.00000000	          0.00000000	          0.00000000	          0.00000000	         18.80909914	        224.91094364	        -16.77911966	         -0.48735925	          0.00000000	         -0.07174128	          0.00000000	          0.00000000	          0.00000000	          0.00000000	         -0.26871739	          0.00000000	
          2.12500000	          0.00000000	          0.00000000	          0.00000000	          0.00000000	          0.00000000	          0.00000000	         19.42430104	        226.51816653	        -17.35459439	         -0.48703424	          0.00000000	         -0.07138314	          0.00000000	          0.00000000	          0.00000000	          0.00000000	         -0.29042203	          0.00000000	
          2.12600000	          0.00000000	          0.00000000	          0.00000000	          0.00000000	          0.00000000	          0.00000000	         19.63278052	        227.23420596	        -17.96958433	         -0.48691150	          0.00000000	         -0.07108750	          0.00000000	          0.00000000	          0.00000000	          0.00000000	         -0.30204978	          0.00000000	
          2.12700000	          0.00000000	          0.00000000	          0.00000000	          0.00000000	          0.00000000	          0.00000000	         19.51487370	        227.53123804	        -18.60951788	         -0.48691703	          0.00000000	         -0.07099394	          0.00000000	          0.00000000	          0.00000000	          0.00000000	         -0.29987362	          0.00000000	
          2.12800000	          0.00000000	          0.00000000	          0.00000000	          0.00000000	          0.00000000	          0.00000000	         19.15374355	        227.89988146	        -19.26217783	         -0.48692026	          0.00000000	         -0.07113147	          0.00000000	          0.00000000	          0.00000000	          0.00000000	         -0.28748398	          0.00000000	
          2.12900000	          0.00000000	          0.00000000	          0.00000000	          0.00000000	          0.00000000	          0.00000000	         18.61801297	        228.81106457	        -19.91759819	         -0.48680621	          0.00000000	         -0.07138768	          0.00000000	          0.00000000	          0.00000000	          0.00000000	         -0.27119482	          0.00000000	
